<svg width="60" height="60" viewBox="0 0 60 60" fill="none" xmlns="http://www.w3.org/2000/svg">
<g clip-path="url(#clip0_199_1025)">
<path fill-rule="evenodd" clip-rule="evenodd" d="M4.80008 29.8436C5.1031 28.8955 5.62519 28.0322 6.32406 27.3236C6.60826 26.8791 6.98667 26.5026 7.43251 26.2206C7.87835 25.9386 8.3807 25.758 8.90406 25.6916C9.19731 25.6953 9.47906 25.8063 9.69606 26.0036C9.81053 26.0829 9.90415 26.1887 9.96892 26.3119C10.0337 26.4352 10.0677 26.5723 10.0681 26.7116C10.0681 27.1796 9.86406 27.4196 9.46806 27.4196L9.04809 27.1556C8.85988 27.0086 8.63646 26.9134 8.40008 26.8796C8.05844 26.8986 7.72941 27.0152 7.45207 27.2156C7.31056 27.2799 7.18842 27.3803 7.09787 27.5066C7.00732 27.633 6.95154 27.7809 6.93607 27.9356C6.93607 28.3196 7.27208 28.6076 7.95608 28.7756C8.42859 28.9301 8.92298 29.0071 9.42008 29.0036C9.76865 29.0017 10.1126 28.9239 10.4281 28.7756L11.3881 28.4396C11.6641 28.3796 11.8201 28.4396 11.8681 28.5596C11.9161 28.6796 11.7481 29.0036 11.3641 29.1716L10.0201 29.6996C9.73208 29.8196 9.07208 30.1556 8.02808 30.7196C6.62414 31.3721 5.34807 32.2702 4.26006 33.3716L3.97207 33.7076L3.61209 33.1796C4.29283 32.349 5.03922 31.5745 5.84407 30.8636L5.40008 30.5276C5.00408 30.2036 4.80008 29.9756 4.80008 29.8436ZM13.6321 27.2636C13.3921 19.0876 13.1841 14.0796 13.0081 12.2396C12.779 10.158 12.4142 8.0936 11.9161 6.05957C8.26162 8.82169 5.28825 12.384 3.22394 16.4734C1.15963 20.5628 0.0592008 25.0706 0.00706992 29.6511C-0.045061 34.2317 0.952465 38.7634 2.92317 42.8987C4.89388 47.034 7.78541 50.663 11.3761 53.5076C12.0049 50.0353 13.3273 46.7254 15.2641 43.7756C14.8499 42.8237 14.5556 41.824 14.3881 40.7996C14.1241 39.2636 13.8721 34.7636 13.6321 27.2636Z" fill="white"/>
<path fill-rule="evenodd" clip-rule="evenodd" d="M14.928 9.69558C15.216 12.3676 15.468 17.6996 15.684 25.6916C15.892 33.2436 16.056 37.3596 16.176 38.0396C16.2239 38.808 16.4261 39.5588 16.7704 40.2474C17.1147 40.936 17.5941 41.5482 18.18 42.0476C18.9273 42.4041 19.754 42.5611 20.58 42.5036C21.2241 42.5939 21.8802 42.479 22.4553 42.1753C23.0305 41.8716 23.4953 41.3944 23.784 40.8116C23.4381 39.4375 22.8176 38.1476 21.96 37.0196C21.864 36.8736 21.8138 36.7023 21.816 36.5276C21.8298 35.3849 22.0919 34.2589 22.584 33.2276C22.764 32.9036 22.944 32.9036 23.16 33.2276C23.7348 34.0504 24.2139 34.9362 24.588 35.8676C24.9982 37.0224 25.1935 38.2425 25.164 39.4676C25.2606 41.1454 24.9216 42.8196 24.18 44.3276C23.88 45.0424 23.3815 45.6562 22.7435 46.0964C22.1055 46.5367 21.3547 46.7849 20.58 46.8116C19.292 46.8909 18.0117 46.5635 16.92 45.8756C16.4391 45.5166 16.0317 45.0685 15.72 44.5556C15.42 45.3596 14.988 46.4396 14.4 47.7956C13.4083 49.8079 12.8096 51.9909 12.636 54.2276V54.4076C14.6248 55.817 16.7763 56.9815 19.044 57.8756C20.5942 57.3364 22.0247 56.5009 23.256 55.4156L27.54 51.0716C29.7091 49.0924 32.1802 47.472 34.86 46.2716C36.66 45.4716 39.732 44.2716 44.076 42.6716L51.996 39.8396C55.812 38.3996 57.72 37.4916 57.72 37.1156C57.713 35.8993 57.4558 34.6974 56.9645 33.5847C56.4731 32.4719 55.7582 31.4722 54.864 30.6476C54.1046 29.8407 53.193 29.192 52.1818 28.7389C51.1705 28.2858 50.0797 28.0373 48.972 28.0076C48.3411 28.0087 47.7226 28.183 47.184 28.5116C46.62 28.8356 46.332 29.1476 46.332 29.4236C46.332 30.1796 46.848 30.5636 47.88 30.5636C48.5797 30.5491 49.2774 30.485 49.968 30.3716C50.5109 30.2701 51.0603 30.206 51.612 30.1796C52.2802 30.2353 52.9218 30.4666 53.4718 30.8502C54.0219 31.2337 54.4607 31.7558 54.744 32.3636C55.3341 33.1249 55.8148 33.965 56.172 34.8596C56.172 34.9796 56.172 35.0516 56.016 35.0516C55.6167 34.9646 55.2326 34.8191 54.876 34.6196C54.3721 34.3658 53.8198 34.2226 53.256 34.1996C52.5887 34.2357 51.9259 34.3321 51.276 34.4876C50.208 34.6676 49.296 34.7996 48.528 34.8596H47.976C47.3825 34.8918 46.7889 34.802 46.2316 34.5956C45.6743 34.3892 45.1652 34.0706 44.736 33.6596C44.34 33.2946 44.0277 32.8481 43.8206 32.351C43.6134 31.8539 43.5164 31.3178 43.536 30.7796C43.5747 28.9577 44.2692 27.2108 45.492 25.8596C45.9422 25.197 46.5345 24.6432 47.2258 24.2384C47.917 23.8336 48.6898 23.5881 49.488 23.5196C50.7986 23.5764 52.0827 23.9081 53.2569 24.4931C54.4312 25.0781 55.4693 25.9035 56.304 26.9156C58.3725 29.0047 59.5363 31.8237 59.544 34.7636V35.0636C59.8238 33.3861 59.9642 31.6883 59.964 29.9876C59.9656 24.6341 58.5346 19.3777 55.8195 14.7637C53.1045 10.1498 49.2042 6.34641 44.5234 3.74828C39.8426 1.15015 34.5518 -0.148083 29.2 -0.011753C23.8482 0.124577 18.6304 1.6905 14.088 4.52359C14.4 5.98759 14.664 7.70361 14.892 9.68361L14.928 9.69558ZM25.656 24.8516C25.7839 23.2307 26.2761 21.6597 27.096 20.2556C27.204 20.0636 27.288 19.9676 27.336 19.9676V20.0396C27.1943 20.7187 26.9853 21.382 26.712 22.0196C26.3611 22.8638 26.1503 23.7595 26.088 24.6716C26.0847 24.9374 26.1294 25.2017 26.22 25.4516L26.712 25.1156C27.3981 24.6195 28.019 24.0389 28.56 23.3876C29.2469 22.754 29.703 21.9095 29.856 20.9876C29.856 19.6196 29.736 16.9796 29.388 13.0436C29.04 9.10759 28.872 6.9116 28.884 6.4076C28.8898 6.07301 28.837 5.73997 28.728 5.42359C28.6616 5.21538 28.6094 5.00289 28.572 4.78759L28.788 3.95959L29.016 3.16762C29.076 3.04762 29.124 2.97561 29.16 2.97561C29.196 2.97561 29.244 2.97559 29.292 3.14359C29.34 3.31159 29.7 4.03161 30.072 4.95561C30.3657 5.61394 30.6143 6.29151 30.816 6.98361C30.8561 7.14076 30.8803 7.30158 30.888 7.4636C30.888 7.5476 30.888 7.58361 30.888 7.58361C30.888 7.58361 30.528 7.35559 30.144 6.88759C30.144 6.81559 30.072 6.88762 30.06 7.03162C30.06 7.58362 30.18 9.43159 30.456 12.5516C30.732 15.6716 30.852 17.7956 30.828 18.8996C30.8542 20.9026 30.3089 22.8715 29.256 24.5756C28.7964 25.2578 28.2429 25.8718 27.612 26.3996C28.5108 26.2449 29.3334 25.7978 29.952 25.1276C30.048 25.0436 32.064 23.2436 33.552 21.7316C33.464 20.2356 33.356 18.2356 33.228 15.7316C32.904 10.2716 32.76 7.21159 32.76 6.55159C32.7772 5.91828 32.6754 5.28738 32.46 4.6916C32.5615 4.02175 32.7386 3.36555 32.988 2.7356C32.988 2.6036 33.084 2.53162 33.108 2.53162C33.132 2.53162 33.192 2.6036 33.24 2.7356L33.948 4.95561L34.62 7.28361L34.704 7.78759C34.704 8.12359 34.428 7.9196 33.888 7.1636C33.816 7.0436 33.792 7.0916 33.792 7.3076L34.2 14.5076C34.368 17.2436 34.476 19.3076 34.548 20.6516C35.3486 19.8677 36.234 19.1754 37.188 18.5876C37.128 17.3876 37.032 15.6476 36.912 13.4996C36.66 9.1076 36.528 6.6356 36.54 6.1076C36.5633 5.59311 36.4689 5.08008 36.264 4.6076C36.3693 4.0592 36.5553 3.52945 36.816 3.0356C36.816 2.9276 36.9 2.87959 36.924 2.87959C36.948 2.87959 37.008 2.8796 37.056 3.0356L37.74 4.82359L38.4 6.69558C38.4404 6.82818 38.4646 6.96521 38.472 7.10362C38.472 7.36762 38.196 7.1996 37.656 6.5996C37.656 6.5036 37.56 6.5396 37.56 6.7076L37.908 12.5516C38.064 15.1796 38.172 17.0276 38.208 18.0836C38.7107 17.8763 39.2482 17.7664 39.792 17.7596C40.2688 17.748 40.7337 17.9101 41.1 18.2156C41.266 18.3429 41.4008 18.5063 41.4944 18.6934C41.5879 18.8805 41.6377 19.0864 41.64 19.2956C41.6452 19.757 41.5553 20.2145 41.376 20.6396C41.316 20.7716 41.28 20.8316 41.256 20.8316C41.232 20.8316 41.16 20.7716 41.076 20.6396C40.9256 20.3314 40.6891 20.0734 40.3953 19.8966C40.1014 19.7199 39.7627 19.632 39.42 19.6436C39.0109 19.6498 38.6056 19.7227 38.22 19.8596C38.1577 20.9136 37.9267 21.9508 37.536 22.9316L37.308 23.4236C37.212 23.5796 37.152 23.6036 37.152 23.4956C37.1115 23.2573 37.1115 23.0139 37.152 22.7756C37.2277 22.1906 37.2677 21.6015 37.272 21.0116C37.272 20.8676 37.272 20.6276 37.272 20.2916C36.3536 20.8339 35.5205 21.5092 34.8 22.2956L34.632 22.4636V22.5716C34.6581 24.1959 34.4355 25.8146 33.972 27.3716L33.744 27.9716C33.648 28.1636 33.6 28.1996 33.588 28.0676C33.5539 27.7726 33.5539 27.4746 33.588 27.1796C33.648 26.5436 33.672 25.8116 33.672 24.9716C33.672 24.7196 33.672 24.1916 33.672 23.3996C32.544 24.4916 31.104 25.7996 30.444 26.4476C29.8372 27.1663 28.9786 27.6257 28.044 27.7316C27.7376 27.7301 27.4355 27.6603 27.1594 27.5275C26.8833 27.3947 26.6404 27.202 26.448 26.9636C25.8391 27.2 25.2183 27.4043 24.588 27.5756C23.9186 27.7873 23.232 27.9399 22.536 28.0316C22.356 28.0316 22.26 28.0316 22.26 28.0316C22.26 28.0316 22.356 27.8876 22.548 27.7676C23.244 27.3356 24.324 26.6516 25.752 25.7036C25.6784 25.4052 25.6422 25.0989 25.644 24.7916L25.656 24.8516ZM24.792 14.8796L22.008 12.2156C20.988 11.2196 20.22 10.4156 19.68 9.81559C19.2652 9.28685 18.8882 8.72948 18.552 8.14761L17.832 6.94761C17.6969 6.72445 17.5121 6.5355 17.292 6.39558C17.184 6.39558 17.148 6.23958 17.148 6.09558V4.7636C17.148 4.5116 17.148 4.37959 17.292 4.37959C17.4156 4.41491 17.5301 4.47628 17.628 4.55959L20.16 6.50362C20.364 6.64762 20.46 6.7556 20.46 6.8276C20.46 6.8996 20.376 6.92359 20.22 6.92359C19.867 6.90535 19.5169 6.84904 19.176 6.75561C19.9785 7.95893 20.9211 9.06265 21.984 10.0436L25.524 13.5356C27.876 15.9356 29.052 17.9716 29.052 19.6436V20.1116C29.0356 20.7187 28.9347 21.3205 28.752 21.8996C28.579 21.4289 28.4739 20.9359 28.44 20.4356C28.2 18.7876 27 16.9356 24.84 14.8796H24.792ZM16.548 51.8516C16.488 51.7796 16.488 51.6956 16.548 51.5636L18.024 48.6236C18.12 48.4316 18.216 48.3476 18.3 48.3476C18.9989 48.6585 19.6528 49.0622 20.244 49.5476C21.372 50.3276 21.948 50.7476 21.948 50.9516C21.6554 52.0873 21.1371 53.1525 20.424 54.0836C20.304 54.2996 20.172 54.3596 20.052 54.2636C18.9343 53.3925 17.7641 52.591 16.548 51.8636V51.8516ZM34.776 36.1676L36.12 33.4316C36.216 33.2156 36.336 33.1076 36.432 33.1076C37.2474 33.4641 38.0137 33.9239 38.712 34.4756C40.056 35.3876 40.716 35.9156 40.716 36.0596C40.3855 37.3987 39.7852 38.6564 38.952 39.7556C38.808 39.9716 38.664 40.0196 38.532 39.9116C37.332 39.0596 36.048 38.1596 34.62 37.2356C34.2255 38.2076 33.7393 39.1398 33.168 40.0196C33.064 40.2676 32.92 40.3396 32.736 40.2356C31.448 39.2436 30.092 38.2956 28.668 37.3916C28.596 37.3916 28.596 37.2596 28.668 37.0796L30.384 33.6956C30.492 33.4916 30.6 33.3716 30.708 33.3716C31.3817 33.6725 32.018 34.0511 32.604 34.4996C33.3828 34.9803 34.1106 35.5392 34.776 36.1676ZM37.308 27.3116C36.192 27.3116 35.64 26.5676 35.64 25.0916C35.6497 23.9213 35.886 22.764 36.336 21.6836C36.432 21.4316 36.516 21.3116 36.564 21.3116C36.612 21.3116 36.564 21.3116 36.564 21.3956L36.48 21.7556C36.2062 22.6033 36.0408 23.4823 35.988 24.3716C35.9771 24.5611 36.0081 24.7507 36.0786 24.927C36.1491 25.1032 36.2574 25.2618 36.396 25.3916C36.6222 25.5973 36.9183 25.7089 37.224 25.7036C37.932 25.7036 40.908 23.9876 42.924 22.6676C44.0191 21.9997 45.073 21.2663 46.08 20.4716C46.1827 20.3971 46.2518 20.2849 46.272 20.1596C46.272 20.0156 46.116 19.8476 45.84 19.6436C45.3221 19.2747 44.7671 18.961 44.184 18.7076C43.5471 18.416 42.9297 18.0833 42.336 17.7116C41.6005 17.2026 40.9556 16.5738 40.428 15.8516C40.3074 15.7206 40.1653 15.611 40.008 15.5276C39.888 15.4556 39.828 15.2996 39.828 15.0476V14.0876V13.9076C39.828 13.9076 39.936 13.9076 40.068 13.9076L41.724 14.6876L41.904 14.7956C42.168 14.9396 42.264 15.0596 42.204 15.1316C42.144 15.2036 41.796 15.2636 41.268 15.2276C41.9676 15.897 42.7801 16.4373 43.668 16.8236C44.4057 17.1433 45.123 17.508 45.816 17.9156C46.0966 18.143 46.3167 18.4361 46.457 18.7689C46.5972 19.1017 46.6532 19.464 46.62 19.8236V20.3756C46.5694 20.7398 46.4684 21.0952 46.32 21.4316C46.1806 21.6434 46.0108 21.8334 45.816 21.9956C44.8328 22.7959 43.803 23.5372 42.732 24.2156C40.788 25.5716 37.944 27.3116 37.308 27.3116Z" fill="white"/>
<path fill-rule="evenodd" clip-rule="evenodd" d="M37.944 49.1635C36.0205 49.8698 34.1615 50.7411 32.388 51.7676C29.5118 53.8906 26.8221 56.2551 24.3481 58.8355L23.832 59.3276C31.2201 60.8846 38.9237 59.5985 45.4053 55.7259C51.8869 51.8534 56.67 45.6793 58.8 38.4355C58.1954 39.7065 57.3187 40.829 56.232 41.7235C55.32 42.5235 51.2801 44.2196 44.1121 46.8116C41.3441 47.8276 39.288 48.6115 37.944 49.1635Z" fill="white"/>
</g>
<defs>
<clipPath id="clip0_199_1025">
<rect width="60" height="60" fill="white"/>
</clipPath>
</defs>
</svg>