<svg id="Layer_1" data-name="Layer 1" xmlns="http://www.w3.org/2000/svg" viewBox="0 0 200.44 225.83"><defs><style>.cls-1{fill:#656b50;fill-rule:evenodd;}</style></defs><path class="cls-1" d="M263,434.13q0,11.49-3.56,17.64-5,9.06-13.11,9.06c-5.71,0-10.14-1.14-13.26-3.4a17.63,17.63,0,0,1-4.4-5q-1.56,4.47-5,12.69c-4.2,9.94-6.13,16.71-6,22.45.38,17.7,21.11,17.79,35.21,5s18-21.79,44.6-34.18c17.41-8.08,42-15.79,60.88-22.86C372,430.37,379,427.29,379,425.91q0-13.28-10.25-23.61-9.86-9.66-21.09-9.66a12.45,12.45,0,0,0-6.41,1.81q-3.06,1.82-3.06,3.37c0,2.76,1.84,4.13,5.52,4.13a48.54,48.54,0,0,0,7.49-.69,45.46,45.46,0,0,1,5.92-.68c4.07,0,8.4,1.95,11.76,7.84,3.12,5.46,5.12,8.33,5.12,9.13,0,.46-.19.69-.59.69a14.71,14.71,0,0,1-4-1.55,17.15,17.15,0,0,0-6.54-1.64,39.6,39.6,0,0,0-7.09,1q-5.71,1-9.86,1.38h-2q-7.49,0-11.63-4.31a13.9,13.9,0,0,1-4.14-10.52q0-9.48,7-18t14.29-8.53q13,0,24.44,12.41,11.84,12.75,11.83,28.78,0,15-12,25.52c-7.2,6.29-50.95,21-65.65,27.23q-14.38,5.86-19.9,9.48-9.86,6.72-28.78,25.86-11.23,11.37-22.47,11.37-9.66,0-16.76-7.58A26.49,26.49,0,0,1,212.6,490c0-10.35,5-26.33,14.47-40.64v0A45.94,45.94,0,0,1,224,438.82q-1.45-8.42-2.75-49.19Q220,345.13,219,335.1a163.77,163.77,0,0,0-6.31-30.75q0-3.89,3.23-11.48c.43-1.3.81-1.94,1.13-1.94s.76.53,1.3,1.61q5,9.87,7.6,33.34,1.62,14.56,2.75,58.09,1.14,41.1,1.78,44.82,2,11,7.29,14.56,2.74,1.62,8.57,1.62,9.06,0,11.65-6.15,0-3.35-7.1-14.48a28.32,28.32,0,0,1,2.73-13c.65-1.18,1.35-1.18,2.11,0a45.94,45.94,0,0,1,5.17,9.55A36.23,36.23,0,0,1,263,434.13Z" transform="translate(-185.23 -290.93)"/><path class="cls-1" d="M324.9,338.76a28.78,28.78,0,0,0,6.85,6.68,59.78,59.78,0,0,0,6.64,3.58,32.51,32.51,0,0,1,5.94,3.36c1,.73,1.56,1.33,1.56,1.85a1.75,1.75,0,0,1-.69,1.12,116.52,116.52,0,0,1-11.34,7.89c-7.24,4.74-17.92,10.9-20.47,10.9a4.28,4.28,0,0,1-3-1.12,4.65,4.65,0,0,1-1.14-1.67,4.82,4.82,0,0,1-.33-2,38.08,38.08,0,0,1,1.77-9.4l.3-1.29c0-.3.17-.3,0-.3s-.47.43-.81,1.33a32.58,32.58,0,0,0-2.51,12.24c0,5.3,2,8,6,8,2.93.14,12-5.21,19-10.08a116,116,0,0,0,11.08-8,15.31,15.31,0,0,0,2.3-3.07,14.75,14.75,0,0,0,1.08-3.8v-2a8,8,0,0,0-.59-3.79,7.83,7.83,0,0,0-2.3-3.07,72.49,72.49,0,0,0-7.71-3.92,29.56,29.56,0,0,1-8.62-5.73c1.89.13,3.14-.09,3.36-.35s-.13-.69-1.08-1.2l-.65-.39-5.94-2.8h-.87v4.09c0,.91.22,1.47.65,1.73A5.53,5.53,0,0,1,324.9,338.76Z" transform="translate(-185.23 -290.93)"/><path class="cls-1" d="M322.61,345.61a15.38,15.38,0,0,0-5.68,1.17c-.13-3.8-.52-10.43-1.08-19.87l-1.25-21c0-.6.34-.73.34-.39,1.94,2.16,2.94,2.76,2.94,1.81a6.58,6.58,0,0,0-.26-1.46l-2.37-6.72-2.46-6.42c-.17-.57-.39-.57-.48-.57a.56.56,0,0,0-.38.57,19.83,19.83,0,0,0-2,5.64,12.31,12.31,0,0,1,1,5.39c0,1.9.43,10.77,1.33,26.54.43,7.72.78,14,1,18.28a54.27,54.27,0,0,0-9.48,7.41c-.26-4.83-.64-12.24-1.25-22.07l-1.46-25.85c0-.78.09-.95.34-.52,1.94,2.71,2.93,3.45,2.93,2.24L304,308l-2.41-8.36-2.54-8c-.18-.48-.39-.73-.48-.73a.75.75,0,0,0-.43.73,32.84,32.84,0,0,0-1.9,7,18.12,18.12,0,0,1,1.08,6.68c0,2.37.52,13.36,1.68,33,.46,9,.83,15.84,1.14,21.22-4.61,4.69-14.07,16.6-20.58,16.31a24.34,24.34,0,0,0,5.18-5.77,37.88,37.88,0,0,0,5.65-20.38c.08-4-.35-11.6-1.34-22.8s-1.42-17.84-1.42-19.83c0-.51.3-.77.3-.51a12.75,12.75,0,0,0,2.67,2.5v-.43a8.51,8.51,0,0,0-.26-1.73,58.71,58.71,0,0,0-2.67-7.28c-1.34-3.32-2.63-5.9-2.8-6.51s-.35-.6-.48-.6-.3.26-.51.69l-.82,2.84-.78,3a18.05,18.05,0,0,0,.56,2.28,10.12,10.12,0,0,1,.56,3.53c0,1.81.56,9.7,1.81,23.84s1.68,23.61,1.68,28.52c-.55,3.31-2.3,5.74-4.65,8.62a35.88,35.88,0,0,1-6.64,6.21l-.39.26c-1.72-4.77.44-14.13,2.63-18.49h-.38c-3.2,3.74-6.7,12.95-5.3,20.35-5.13,3.41-9,5.86-11.51,7.41a3.7,3.7,0,0,0-1,.95h1a43,43,0,0,0,7.36-1.64,66.85,66.85,0,0,0,6.68-2.19,8.53,8.53,0,0,0,7.49,2.72c7.26-.88,13.93-11.14,18.46-15.53,0,4.49.12,9.12-.3,13.58a13.1,13.1,0,0,0,0,3.19c0,.47.21.34.55-.35l.82-2.15a58.47,58.47,0,0,0,2.37-17.63,44.17,44.17,0,0,1,9.49-7.8v2.59a51.52,51.52,0,0,1-.44,6.33,8,8,0,0,0,0,2.59c0,.39.22.3.57-.26l.81-1.77a35.4,35.4,0,0,0,2.46-11,13.44,13.44,0,0,1,4.31-.77,6.33,6.33,0,0,1,3.5.91,6.42,6.42,0,0,1,2.45,2.66c.3.48.56.69.64.69s.22-.21.43-.69a11.92,11.92,0,0,0,.95-4.82,4.91,4.91,0,0,0-1.94-3.88A7,7,0,0,0,322.61,345.61Z" transform="translate(-185.23 -290.93)"/><path class="cls-1" d="M284.05,352.38q0-9-12.67-21.94L258.66,317.9a65.39,65.39,0,0,1-10.08-11.81,17.58,17.58,0,0,0,3.75.61c.56,0,.86-.09.86-.35s-.34-.64-1.08-1.16l-9.09-7a3.23,3.23,0,0,0-1.21-.65c-.51,0-.51.47-.51,1.38v4.78c0,.52.13,1.08.51,1.08a6,6,0,0,1,1.94,2l4,6.62a30.32,30.32,0,0,0,3,4.09c1.91,2.11,4.55,4.86,8,8.21l10,9.57c4.76,4.44,13.14,14.89,13.1,20a18.93,18.93,0,0,0,1.12,5.26,23.72,23.72,0,0,0,1.08-6.42Z" transform="translate(-185.23 -290.93)"/><path class="cls-1" d="M209.7,395.53a8.67,8.67,0,0,1-3.62.82,16.7,16.7,0,0,1-5.25-.82c-2.46-.6-3.67-1.64-3.67-3a3.33,3.33,0,0,1,.58-1.54,3.24,3.24,0,0,1,1.28-1,6.4,6.4,0,0,1,3.4-1.21,4.9,4.9,0,0,1,2.33,1l1.51,1c1.42,0,2.15-.86,2.15-2.54a3.12,3.12,0,0,0-1.33-2.54,4.37,4.37,0,0,0-2.85-1.13,13,13,0,0,0-5.28,1.9c-3.8,2.4-8.13,8.86-9.46,13,0,.48.74,1.3,2.16,2.46l1.59,1.21a71.46,71.46,0,0,0-8,8.31l1.29,1.9,1-1.21a46.75,46.75,0,0,1,13.53-9.52c3.75-2,6.13-3.23,7.16-3.66l4.82-1.9c1.39-.6,2-1.76,1.81-2.2s-.73-.64-1.72-.43Z" transform="translate(-185.23 -290.93)"/><path class="cls-1" d="M237,466.81l-5.3,10.56c-.21.47-.21.77,0,1v0a127.27,127.27,0,0,1,12.59,8.62c.43.35.9.13,1.33-.64a31.41,31.41,0,0,0,5.47-11.25c0-.73-2.07-2.24-6.12-5a30.07,30.07,0,0,0-7-4.31C237.67,465.82,237.33,466.12,237,466.81Z" transform="translate(-185.23 -290.93)"/><path class="cls-1" d="M275.2,426.47q7.68,4.88,14.62,10.21c.66.38,1.17.12,1.55-.77a59.73,59.73,0,0,0,5.21-10c5.13,3.32,9.74,6.55,14.05,9.61.47.39,1,.22,1.51-.56a36.26,36.26,0,0,0,6.33-13.27c0-.52-2.37-2.41-7.19-5.69a37.39,37.39,0,0,0-8.19-4.91c-.35,0-.78.39-1.12,1.16l-4.83,9.83a47.68,47.68,0,0,0-7.8-6,33.92,33.92,0,0,0-6.81-4c-.39,0-.77.43-1.16,1.16l-6.17,12.15C275,426,275,426.47,275.2,426.47Z" transform="translate(-185.23 -290.93)"/></svg>