<svg width="40" height="40" viewBox="0 0 40 40" fill="none" xmlns="http://www.w3.org/2000/svg">
<g clip-path="url(#clip0_224_1020)">
<path fill-rule="evenodd" clip-rule="evenodd" d="M3.2 19.896C3.40202 19.264 3.75008 18.6885 4.216 18.216C4.40546 17.9197 4.65774 17.6687 4.95496 17.4807C5.25218 17.2927 5.58709 17.1723 5.93599 17.1281C6.13149 17.1305 6.31932 17.2045 6.46399 17.3361C6.54031 17.3889 6.60272 17.4594 6.6459 17.5416C6.68908 17.6238 6.71175 17.7152 6.71199 17.8081C6.71199 18.1201 6.57599 18.2801 6.31199 18.2801L6.03201 18.1041C5.90654 18.0061 5.7576 17.9426 5.6 17.92C5.37224 17.9327 5.15289 18.0104 4.968 18.144C4.87366 18.1869 4.79223 18.2539 4.73186 18.3381C4.6715 18.4223 4.63431 18.5209 4.624 18.624C4.624 18.88 4.84801 19.0721 5.30401 19.1841C5.61901 19.287 5.94861 19.3384 6.28001 19.3361C6.51239 19.3348 6.7417 19.2829 6.95201 19.1841L7.592 18.9601C7.776 18.9201 7.87999 18.96 7.91199 19.04C7.94399 19.12 7.83201 19.336 7.57601 19.448L6.68001 19.8C6.48801 19.88 6.04801 20.1041 5.35201 20.4801C4.41605 20.9151 3.56534 21.5138 2.83999 22.248L2.648 22.472L2.40801 22.12C2.86184 21.5663 3.35943 21.05 3.896 20.576L3.6 20.352C3.336 20.136 3.2 19.984 3.2 19.896ZM9.08799 18.176C8.92799 12.7254 8.78934 9.38672 8.672 8.16006C8.51929 6.77234 8.2761 5.39606 7.944 4.04004C5.5077 5.88145 3.52545 8.25635 2.14925 10.9826C0.773041 13.7088 0.0394214 16.714 0.00466751 19.7677C-0.0300864 22.8215 0.634931 25.8426 1.94873 28.5994C3.26254 31.3563 5.19023 33.7757 7.58399 35.672C8.00322 33.3572 8.88479 31.1506 10.176 29.1841C9.89989 28.5495 9.70371 27.883 9.592 27.2C9.416 26.176 9.24799 23.176 9.08799 18.176Z" fill="white"/>
<path fill-rule="evenodd" clip-rule="evenodd" d="M9.952 6.46437C10.144 8.24571 10.312 11.8004 10.456 17.1284C10.5947 22.1631 10.704 24.9071 10.784 25.3604C10.816 25.8726 10.9507 26.3732 11.1803 26.8322C11.4098 27.2913 11.7294 27.6995 12.12 28.0324C12.6182 28.27 13.1694 28.3747 13.72 28.3364C14.1494 28.3966 14.5868 28.32 14.9702 28.1175C15.3536 27.915 15.6636 27.5969 15.856 27.2084C15.6254 26.2923 15.2117 25.4324 14.64 24.6804C14.576 24.5831 14.5426 24.4688 14.544 24.3524C14.5532 23.5906 14.7279 22.8399 15.056 22.1524C15.176 21.9364 15.296 21.9364 15.44 22.1524C15.8232 22.701 16.1426 23.2914 16.392 23.9124C16.6655 24.6822 16.7957 25.4957 16.776 26.3124C16.8404 27.4309 16.6144 28.547 16.12 29.5524C15.92 30.0289 15.5877 30.4381 15.1623 30.7316C14.737 31.0251 14.2365 31.1906 13.72 31.2084C12.8614 31.2613 12.0078 31.043 11.28 30.5844C10.9594 30.3451 10.6878 30.0463 10.48 29.7044C10.28 30.2404 9.992 30.9604 9.6 31.8644C8.9389 33.2059 8.53976 34.6613 8.424 36.1524V36.2724C9.74985 37.212 11.1842 37.9883 12.696 38.5844C13.7295 38.2249 14.6832 37.6679 15.504 36.9444L18.36 34.0484C19.8061 32.7289 21.4535 31.6487 23.24 30.8484C24.44 30.3151 26.488 29.515 29.384 28.4484L34.664 26.5604C37.208 25.6004 38.48 24.995 38.48 24.7444C38.4753 23.9335 38.3039 23.1322 37.9763 22.3904C37.6488 21.6486 37.1721 20.9821 36.576 20.4324C36.0697 19.8944 35.462 19.462 34.7878 19.1599C34.1137 18.8579 33.3865 18.6922 32.648 18.6724C32.2274 18.6731 31.8151 18.7893 31.456 19.0084C31.08 19.2244 30.888 19.4324 30.888 19.6164C30.888 20.1204 31.232 20.3764 31.92 20.3764C32.3864 20.3667 32.8516 20.324 33.312 20.2484C33.674 20.1807 34.0402 20.138 34.408 20.1204C34.8535 20.1575 35.2812 20.3117 35.6479 20.5674C36.0146 20.8231 36.3072 21.1712 36.496 21.5764C36.8894 22.0839 37.2099 22.644 37.448 23.2404C37.448 23.3204 37.448 23.3684 37.344 23.3684C37.0778 23.3104 36.8217 23.2134 36.584 23.0804C36.248 22.9112 35.8798 22.8157 35.504 22.8004C35.0591 22.8245 34.6173 22.8887 34.184 22.9924C33.472 23.1124 32.864 23.2004 32.352 23.2404H31.984C31.5884 23.2619 31.1926 23.202 30.821 23.0644C30.4495 22.9268 30.1102 22.7144 29.824 22.4404C29.56 22.197 29.3518 21.8994 29.2137 21.568C29.0756 21.2366 29.0109 20.8792 29.024 20.5204C29.0498 19.3058 29.5128 18.1412 30.328 17.2404C30.6282 16.7987 31.023 16.4294 31.4839 16.1596C31.9447 15.8897 32.4599 15.726 32.992 15.6804C33.8658 15.7182 34.7218 15.9394 35.5046 16.3294C36.2874 16.7194 36.9795 17.2696 37.536 17.9444C38.915 19.3371 39.6909 21.2164 39.696 23.1764V23.3764C39.8825 22.258 39.9762 21.1262 39.976 19.9924C39.9771 16.4234 39.0231 12.9191 37.213 9.84313C35.403 6.76717 32.8028 4.23159 29.6822 2.49951C26.5617 0.767418 23.0345 -0.0980712 19.4667 -0.0071843C15.8988 0.0837026 12.4203 1.12765 9.39199 3.01638C9.59999 3.99238 9.776 5.13639 9.928 6.45639L9.952 6.46437ZM17.104 16.5684C17.1893 15.4878 17.5174 14.4404 18.064 13.5044C18.136 13.3764 18.192 13.3124 18.224 13.3124V13.3604C18.1295 13.8131 17.9902 14.2553 17.808 14.6804C17.5741 15.2432 17.4335 15.8403 17.392 16.4484C17.3898 16.6256 17.4196 16.8018 17.48 16.9684L17.808 16.7444C18.2654 16.4136 18.6793 16.0266 19.04 15.5924C19.498 15.17 19.802 14.607 19.904 13.9924C19.904 13.0804 19.824 11.3204 19.592 8.69638C19.36 6.07238 19.248 4.60838 19.256 4.27238C19.2599 4.04932 19.2247 3.8273 19.152 3.61638C19.1077 3.47757 19.073 3.33591 19.048 3.19238L19.192 2.64037L19.344 2.1124C19.384 2.0324 19.416 1.98439 19.44 1.98439C19.464 1.98439 19.496 1.98438 19.528 2.09638C19.56 2.20838 19.8 2.68839 20.048 3.30439C20.2438 3.74328 20.4095 4.19499 20.544 4.65639C20.5708 4.76116 20.5868 4.86837 20.592 4.97639C20.592 5.03239 20.592 5.05639 20.592 5.05639C20.592 5.05639 20.352 4.90438 20.096 4.59238C20.096 4.54438 20.048 4.5924 20.04 4.6884C20.04 5.0564 20.12 6.28838 20.304 8.36838C20.488 10.4484 20.568 11.8644 20.552 12.6004C20.5695 13.9357 20.2059 15.2483 19.504 16.3844C19.1976 16.8392 18.8286 17.2485 18.408 17.6004C19.0072 17.4973 19.5556 17.1992 19.968 16.7524C20.032 16.6964 21.376 15.4964 22.368 14.4884C22.3093 13.4911 22.2373 12.1577 22.152 10.4884C21.936 6.8484 21.84 4.80838 21.84 4.36838C21.8515 3.94617 21.7836 3.52557 21.64 3.12839C21.7077 2.68181 21.8258 2.24435 21.992 1.82438C21.992 1.73638 22.056 1.6884 22.072 1.6884C22.088 1.6884 22.128 1.73638 22.16 1.82438L22.632 3.30439L23.08 4.85639L23.136 5.19238C23.136 5.41638 22.952 5.28039 22.592 4.77639C22.544 4.69639 22.528 4.72838 22.528 4.87238L22.8 9.67238C22.912 11.4964 22.984 12.8724 23.032 13.7684C23.5657 13.2458 24.156 12.7842 24.792 12.3924C24.752 11.5924 24.688 10.4324 24.608 9.00038C24.44 6.07238 24.352 4.42438 24.36 4.07238C24.3755 3.72939 24.3126 3.38737 24.176 3.07238C24.2462 2.70679 24.3702 2.35362 24.544 2.02438C24.544 1.95238 24.6 1.92038 24.616 1.92038C24.632 1.92038 24.672 1.92038 24.704 2.02438L25.16 3.21638L25.6 4.46437C25.6269 4.55277 25.643 4.64412 25.648 4.73639C25.648 4.9124 25.464 4.80038 25.104 4.40038C25.104 4.33638 25.04 4.36038 25.04 4.47238L25.272 8.36838C25.376 10.1204 25.448 11.3524 25.472 12.0564C25.8072 11.9182 26.1655 11.8449 26.528 11.8404C26.8459 11.8327 27.1558 11.9407 27.4 12.1444C27.5106 12.2293 27.6005 12.3382 27.6629 12.4629C27.7253 12.5877 27.7585 12.7249 27.76 12.8644C27.7635 13.172 27.7035 13.477 27.584 13.7604C27.544 13.8484 27.52 13.8884 27.504 13.8884C27.488 13.8884 27.44 13.8484 27.384 13.7604C27.2837 13.5549 27.1261 13.3829 26.9302 13.2651C26.7343 13.1473 26.5085 13.0887 26.28 13.0964C26.0073 13.1005 25.737 13.1491 25.48 13.2404C25.4385 13.943 25.2845 14.6345 25.024 15.2884L24.872 15.6164C24.808 15.7204 24.768 15.7364 24.768 15.6644C24.741 15.5055 24.741 15.3433 24.768 15.1844C24.8184 14.7944 24.8452 14.4017 24.848 14.0084C24.848 13.9124 24.848 13.7524 24.848 13.5284C24.2357 13.8899 23.6803 14.3401 23.2 14.8644L23.088 14.9764V15.0484C23.1054 16.1312 22.957 17.2104 22.648 18.2484L22.496 18.6484C22.432 18.7764 22.4 18.8004 22.392 18.7124C22.3692 18.5157 22.3692 18.3171 22.392 18.1204C22.432 17.6964 22.448 17.2084 22.448 16.6484C22.448 16.4804 22.448 16.1284 22.448 15.6004C21.696 16.3284 20.736 17.2004 20.296 17.6324C19.8915 18.1115 19.319 18.4178 18.696 18.4884C18.4918 18.4874 18.2903 18.4409 18.1063 18.3523C17.9222 18.2638 17.7602 18.1353 17.632 17.9764C17.2261 18.134 16.8122 18.2702 16.392 18.3844C15.9458 18.5255 15.488 18.6273 15.024 18.6884C14.904 18.6884 14.84 18.6884 14.84 18.6884C14.84 18.6884 14.904 18.5924 15.032 18.5124C15.496 18.2244 16.216 17.7684 17.168 17.1364C17.119 16.9375 17.0948 16.7332 17.096 16.5284L17.104 16.5684ZM16.528 9.92038L14.672 8.14438C13.992 7.48038 13.48 6.94438 13.12 6.54438C12.8435 6.19188 12.5922 5.82031 12.368 5.43239L11.888 4.63239C11.798 4.48361 11.6748 4.35765 11.528 4.26437C11.456 4.26437 11.432 4.16037 11.432 4.06437V3.17639C11.432 3.00839 11.432 2.92038 11.528 2.92038C11.6104 2.94393 11.6868 2.98484 11.752 3.04037L13.44 4.33639C13.576 4.43239 13.64 4.50439 13.64 4.55239C13.64 4.60039 13.584 4.61638 13.48 4.61638C13.2446 4.60422 13.0113 4.56668 12.784 4.50439C13.319 5.3066 13.9474 6.04242 14.656 6.69638L17.016 9.02438C18.584 10.6244 19.368 11.9817 19.368 13.0964V13.4084C19.3571 13.8131 19.2898 14.2143 19.168 14.6004C19.0527 14.2866 18.9826 13.9579 18.96 13.6244C18.8 12.5257 18 11.291 16.56 9.92038H16.528ZM11.032 34.5684C10.992 34.5204 10.992 34.4644 11.032 34.3764L12.016 32.4164C12.08 32.2884 12.144 32.2324 12.2 32.2324C12.666 32.4397 13.1019 32.7088 13.496 33.0324C14.248 33.5524 14.632 33.8324 14.632 33.9684C14.4369 34.7255 14.0914 35.4356 13.616 36.0564C13.536 36.2004 13.448 36.2404 13.368 36.1764C12.6228 35.5957 11.8427 35.0613 11.032 34.5764V34.5684ZM23.184 24.1124L24.08 22.2884C24.144 22.1444 24.224 22.0724 24.288 22.0724C24.8316 22.31 25.3425 22.6166 25.808 22.9844C26.704 23.5924 27.144 23.9444 27.144 24.0404C26.9237 24.9331 26.5235 25.7716 25.968 26.5044C25.872 26.6484 25.776 26.6804 25.688 26.6084C24.888 26.0404 24.032 25.4404 23.08 24.8244C22.817 25.4724 22.4929 26.0939 22.112 26.6804C22.0427 26.8457 21.9467 26.8937 21.824 26.8244C20.9653 26.163 20.0613 25.5311 19.112 24.9284C19.064 24.9284 19.064 24.8404 19.112 24.7204L20.256 22.4644C20.328 22.3284 20.4 22.2484 20.472 22.2484C20.9212 22.449 21.3454 22.7014 21.736 23.0004C22.2552 23.3208 22.7404 23.6934 23.184 24.1124ZM24.872 18.2084C24.128 18.2084 23.76 17.7124 23.76 16.7284C23.7665 15.9482 23.924 15.1766 24.224 14.4564C24.288 14.2884 24.344 14.2084 24.376 14.2084C24.408 14.2084 24.376 14.2084 24.376 14.2644L24.32 14.5044C24.1375 15.0695 24.0272 15.6555 23.992 16.2484C23.9848 16.3747 24.0054 16.5011 24.0524 16.6186C24.0994 16.7361 24.1716 16.8419 24.264 16.9284C24.4148 17.0655 24.6122 17.1399 24.816 17.1364C25.288 17.1364 27.272 15.9924 28.616 15.1124C29.3461 14.6671 30.0487 14.1782 30.72 13.6484C30.7885 13.5987 30.8345 13.5239 30.848 13.4404C30.848 13.3444 30.744 13.2324 30.56 13.0964C30.2147 12.8505 29.8447 12.6413 29.456 12.4724C29.0314 12.278 28.6198 12.0562 28.224 11.8084C27.7337 11.469 27.3037 11.0499 26.952 10.5684C26.8716 10.481 26.7769 10.408 26.672 10.3524C26.592 10.3044 26.552 10.2004 26.552 10.0324V9.39238V9.27238C26.552 9.27238 26.624 9.27238 26.712 9.27238L27.816 9.79238L27.936 9.86437C28.112 9.96037 28.176 10.0404 28.136 10.0884C28.096 10.1364 27.864 10.1764 27.512 10.1524C27.9784 10.5986 28.5201 10.9589 29.112 11.2164C29.6038 11.4295 30.082 11.6726 30.544 11.9444C30.731 12.096 30.8778 12.2914 30.9713 12.5133C31.0648 12.7351 31.1021 12.9766 31.08 13.2164V13.5844C31.0462 13.8272 30.9789 14.0641 30.88 14.2884C30.7871 14.4296 30.6739 14.5562 30.544 14.6644C29.8885 15.1979 29.202 15.6921 28.488 16.1444C27.192 17.0484 25.296 18.2084 24.872 18.2084Z" fill="white"/>
<path fill-rule="evenodd" clip-rule="evenodd" d="M25.296 32.776C24.0136 33.2469 22.7743 33.8277 21.592 34.512C19.6745 35.9274 17.8814 37.5037 16.232 39.224L15.888 39.552C20.8134 40.59 25.9491 39.7326 30.2702 37.151C34.5913 34.5693 37.78 30.4532 39.2 25.624C38.7969 26.4714 38.2125 27.2197 37.488 27.816C36.88 28.3493 34.1867 29.48 29.408 31.208C27.5627 31.8854 26.192 32.408 25.296 32.776Z" fill="white"/>
</g>
<defs>
<clipPath id="clip0_224_1020">
<rect width="40" height="40" fill="white"/>
</clipPath>
</defs>
</svg>
